#N canvas -7 0 1920 997 12;
#X obj 1 -55 netreceive -u -b 5580;
#X obj 1 -24 oscparse;
#X obj 11 45 list trim;
#X msg 1 -85 listen 5580;
#X obj 1 -113 loadbang;
#X floatatom 376 548 5 0 1 0 VOLUMEN_DECK1 - - 0;
#X floatatom 127 206 5 0 10000 0 FILTRO_LOW_D1 - - 0;
#X floatatom 295 219 5 0 1 0 REVERB_WET_D1 - - 0;
#X floatatom 450 243 5 0 10000 0 FILTRO_HIGH_D1 - - 0;
#X obj 1491 150 bng 15 250 50 0 empty empty CARGAR_D1 0 -10 0 12 #fcfcfc #000000 #000000;
#X obj 1479 198 openpanel;
#X msg 1460 259 read -resize \$1 deck1;
#X obj 1467 327 soundfiler;
#X obj 1427 439 array define deck1;
#X floatatom 1490 391 10 0 0 0 SAMPLES_D1 - - 0;
#X obj 7 420 tabplay~ deck1;
#X obj 6 254 bng 15 250 50 0 empty empty PLAY_D1 0 -10 0 12 #fcfcfc #000000 #000000;
#X obj 66 270 bng 15 250 50 0 empty empty STOP_D1 0 -10 0 12 #fcfcfc #000000 #000000;
#X obj 38 492 hip~ 20;
#X obj 38 520 lop~ 10000;
#X obj 49 551 *~ 1;
#X obj 4 583 clip~ -0.99 0.99;
#X obj 13 661 freeverb~;
#X obj 356 657 freeverb~;
#X obj 38 926 *~ 1;
#X obj 258 892 *~ 1;
#X msg 20 322 1;
#X msg 67 323 stop;
#X obj 232 76 print;
#X obj 154 493 hip~ 20;
#X obj 154 520 lop~ 10000;
#X obj 195 550 *~ 1;
#X obj 132 581 clip~ -0.99 0.99;
#X obj 573 472 expr 1 - $f1;
#X floatatom 624 536 5 0 1 0 REVERB_DRY_D1 - - 0;
#X msg 459 567 wet \$1;
#X msg 569 583 dry \$1;
#X floatatom 566 261 5 0 1 0 DELAY_MIX_D1 - - 0;
#X obj 30 689 delwrite~ delayL1 2000;
#X obj 523 707 delwrite~ delayR1 2000;
#X obj 34 730 delread~ delayL1 500;
#X obj 335 765 delread~ delayR1 500;
#X obj 78 844 *~ 0;
#X obj 451 852 *~ 0;
#X floatatom 745 614 5 0 1 0 VOLUMEN_DECK2 - - 0;
#X floatatom 1044 269 5 0 10000 0 FILTRO_LOW_D2 - - 0;
#X floatatom 1248 241 5 0 10000 0 FILTRO_HIGH_D2 - - 0;
#X obj 1663 155 bng 15 250 50 0 empty empty CARGAR_D2 0 -10 0 12 #fcfcfc #000000 #000000;
#X obj 1651 203 openpanel;
#X msg 1632 264 read -resize \$1 deck2;
#X obj 1639 332 soundfiler;
#X obj 1599 444 array define deck2;
#X floatatom 1662 396 10 0 0 0 SAMPLES_D2 - - 0;
#X obj 807 420 tabplay~ deck2;
#X obj 853 270 bng 15 250 50 0 empty empty PLAY_D2 0 -10 0 12 #fcfcfc #000000 #000000;
#X obj 897 278 bng 15 250 50 0 empty empty STOP_D2 0 -10 0 12 #fcfcfc #000000 #000000;
#X obj 838 492 hip~ 20;
#X obj 838 520 lop~ 10000;
#X obj 850 600 *~ 1;
#X obj 866 650 *~ 1;
#X obj 1006 650 *~ 1;
#X obj 171 922 dac~;
#X msg 850 330 1;
#X msg 900 330 stop;
#X obj 954 493 hip~ 20;
#X obj 954 520 lop~ 10000;
#X obj 994 600 *~ 1;
#X obj 171 891 +~;
#X obj 351 924 +~;
#X obj 715 58 bng 30 250 50 0 empty empty SYNC_PLAY 0 -12 0 14 #00ff00 #000000 #000000;
#X obj 697 147 t b b;
#X obj 830 101 bng 30 250 50 0 empty empty SYNC_STOP 0 -12 0 14 #ff0000 #000000 #000000;
#X obj 732 252 t b b;
#X obj 235 24 route 1_fader1;
#X obj 169 128 route volumen1 filtrobass1 reverb1 filtrohigh1 delay1 volumen2 filtrobass2 filtrohigh2 sync syncstop;
#X connect 0 0 1 0;
#X connect 1 0 2 0;
#X connect 2 0 28 0;
#X connect 2 0 74 0;
#X connect 3 0 0 0;
#X connect 4 0 3 0;
#X connect 5 0 24 1;
#X connect 5 0 25 1;
#X connect 6 0 19 1;
#X connect 6 0 30 1;
#X connect 7 0 35 0;
#X connect 7 0 33 0;
#X connect 8 0 18 1;
#X connect 8 0 29 1;
#X connect 9 0 10 0;
#X connect 10 0 11 0;
#X connect 11 0 12 0;
#X connect 12 1 14 0;
#X connect 15 0 18 0;
#X connect 15 0 29 0;
#X connect 16 0 26 0;
#X connect 17 0 27 0;
#X connect 18 0 19 0;
#X connect 19 0 20 0;
#X connect 20 0 21 0;
#X connect 21 0 22 0;
#X connect 22 0 38 0;
#X connect 22 0 24 0;
#X connect 23 0 39 0;
#X connect 23 0 25 0;
#X connect 24 0 67 0;
#X connect 25 0 68 0;
#X connect 26 0 15 0;
#X connect 27 0 15 0;
#X connect 29 0 30 0;
#X connect 30 0 31 0;
#X connect 31 0 32 0;
#X connect 32 0 23 0;
#X connect 33 0 34 0;
#X connect 33 0 36 0;
#X connect 35 0 22 0;
#X connect 35 0 23 0;
#X connect 36 0 22 0;
#X connect 36 0 23 0;
#X connect 37 0 42 1;
#X connect 37 0 43 1;
#X connect 40 0 42 0;
#X connect 41 0 43 0;
#X connect 42 0 24 0;
#X connect 43 0 25 0;
#X connect 44 0 59 1;
#X connect 44 0 60 1;
#X connect 45 0 57 1;
#X connect 45 0 65 1;
#X connect 46 0 56 1;
#X connect 46 0 64 1;
#X connect 47 0 48 0;
#X connect 48 0 49 0;
#X connect 49 0 50 0;
#X connect 50 1 52 0;
#X connect 53 0 56 0;
#X connect 53 0 64 0;
#X connect 54 0 62 0;
#X connect 55 0 63 0;
#X connect 56 0 57 0;
#X connect 57 0 58 0;
#X connect 58 0 59 0;
#X connect 59 0 67 1;
#X connect 60 0 68 1;
#X connect 62 0 53 0;
#X connect 63 0 53 0;
#X connect 64 0 65 0;
#X connect 65 0 66 0;
#X connect 66 0 60 0;
#X connect 67 0 61 0;
#X connect 68 0 61 1;
#X connect 69 0 70 0;
#X connect 70 0 26 0;
#X connect 70 1 62 0;
#X connect 71 0 72 0;
#X connect 72 0 27 0;
#X connect 72 1 63 0;
#X connect 74 0 5 0;
#X connect 74 1 6 0;
#X connect 74 2 7 0;
#X connect 74 3 8 0;
#X connect 74 4 37 0;
#X connect 74 5 44 0;
#X connect 74 6 45 0;
#X connect 74 7 46 0;
#X connect 74 8 69 0;
#X connect 74 9 71 0;