#N canvas 0 0 1920 997 12;
#X obj 1 -55 netreceive -u -b 5580;
#X obj 1 -24 oscparse;
#X obj 11 45 list trim;
#X msg 1 -85 listen 5580;
#X obj 1 -113 loadbang;
#X floatatom 376 548 5 0 1 0 VOLUMEN_DECK1 - - 0;
#X floatatom 127 206 5 0 10000 0 FILTRO_LOW_D1 - - 0;
#X floatatom 295 219 5 0 1 0 REVERB_WET_D1 - - 0;
#X floatatom 450 243 5 0 10000 0 FILTRO_HIGH_D1 - - 0;
#X obj 1491 150 bng 15 250 50 0 empty empty CARGAR_D1 0 -10 0 12 #fcfcfc #000000 #000000;
#X obj 1479 198 openpanel;
#X msg 1460 259 read -resize \$1 deck1;
#X obj 1467 327 soundfiler;
#X obj 1427 439 array define deck1;
#X floatatom 1490 391 10 0 0 0 SAMPLES_D1 - - 0;
#X obj 7 420 tabplay~ deck1;
#X obj 6 254 bng 15 250 50 0 empty empty PLAY_D1 0 -10 0 12 #fcfcfc #000000 #000000;
#X obj 66 270 bng 15 250 50 0 empty empty STOP_D1 0 -10 0 12 #fcfcfc #000000 #000000;
#X obj 38 492 hip~ 20;
#X obj 38 520 lop~ 10000;
#X obj 49 551 *~ 1;
#X obj 4 583 clip~ -0.99 0.99;
#X obj 13 661 freeverb~;
#X obj 356 657 freeverb~;
#X obj 38 926 *~ 1;
#X obj 258 892 *~ 1;
#X msg 20 322 1;
#X msg 67 323 stop;
#X obj 232 76 print;
#X obj 154 493 hip~ 20;
#X obj 154 520 lop~ 10000;
#X obj 195 550 *~ 1;
#X obj 132 581 clip~ -0.99 0.99;
#X obj 573 472 expr 1 - $f1;
#X floatatom 624 536 5 0 1 0 REVERB_DRY_D1 - - 0;
#X msg 459 567 wet \$1;
#X msg 569 583 dry \$1;
#X floatatom 566 261 5 0 1 0 DELAY_MIX_D1 - - 0;
#X obj 30 689 delwrite~ delayL1 2000;
#X obj 523 707 delwrite~ delayR1 2000;
#X obj 34 730 delread~ delayL1 500;
#X obj 335 765 delread~ delayR1 500;
#X obj 78 844 *~ 0;
#X obj 451 852 *~ 0;
#X floatatom 745 614 5 0 1 0 VOLUMEN_DECK2 - - 0;
#X floatatom 1044 269 5 0 10000 0 FILTRO_LOW_D2 - - 0;
#X floatatom 1248 241 5 0 10000 0 FILTRO_HIGH_D2 - - 0;
#X obj 1663 155 bng 15 250 50 0 empty empty CARGAR_D2 0 -10 0 12 #fcfcfc #000000 #000000;
#X obj 1651 203 openpanel;
#X msg 1632 264 read -resize \$1 deck2;
#X obj 1639 332 soundfiler;
#X obj 1599 444 array define deck2;
#X floatatom 1662 396 10 0 0 0 SAMPLES_D2 - - 0;
#X obj 807 420 tabplay~ deck2;
#X obj 853 270 bng 15 250 50 0 empty empty PLAY_D2 0 -10 0 12 #fcfcfc #000000 #000000;
#X obj 897 278 bng 15 250 50 0 empty empty STOP_D2 0 -10 0 12 #fcfcfc #000000 #000000;
#X obj 838 492 hip~ 20;
#X obj 838 520 lop~ 10000;
#X obj 850 600 *~ 1;
#X obj 866 650 *~ 1;
#X obj 1006 650 *~ 1;
#X obj 171 922 dac~;
#X msg 850 330 1;
#X msg 900 330 stop;
#X obj 954 493 hip~ 20;
#X obj 954 520 lop~ 10000;
#X obj 994 600 *~ 1;
#X obj 171 891 +~;
#X obj 351 924 +~;
#X obj 715 58 bng 30 250 50 0 empty empty SYNC_PLAY 0 -12 0 14 #00ff00 #000000 #000000;
#X obj 697 147 t b b;
#X obj 830 101 bng 30 250 50 0 empty empty SYNC_STOP 0 -12 0 14 #ff0000 #000000 #000000;
#X obj 732 252 t b b;
#X obj 235 24 route 1_fader1;
#X obj 1128 -28;
#X obj 1376 907 *~ 0.25;
#X obj 1376 928 dac~;
#X obj 1390 758 bng 15 250 50 0 empty empty empty 17 7 0 10 #fcfcfc #000000 #000000;
#N canvas 0 23 746 614 tr808-snare 0;
#X obj 247 36 inlet;
#X obj 174 410 vcf~ 3;
#X obj 205 109 noise~;
#X obj 196 164 *~;
#X floatatom 296 38 5 0 0 1 Decay - - 0;
#X obj 175 442 hip~ 50;
#X obj 318 271 +~ 100;
#X obj 317 244 *~ 8000;
#X obj 244 410 vcf~ 5;
#X obj 369 244 *~ 5000;
#X obj 373 272 +~ 200;
#X obj 296 15 inlet;
#X obj 175 463 outlet~;
#X obj 483 199 inlet;
#X obj 483 220 * 0.6;
#N canvas 381 209 450 300 vol_env 0;
#X obj 37 37 inlet;
#X obj 29 204 *~;
#X obj 29 225 outlet~;
#X obj 38 155 vline~;
#X msg 37 58 1 0.5 \, 0 \$1 0.5;
#X connect 0 0 4 0;
#X connect 1 0 2 0;
#X connect 3 0 1 0;
#X connect 3 0 1 1;
#X connect 4 0 3 0;
#X restore 132 82 pd vol_env;
#X obj 247 57 f 250;
#N canvas 381 209 450 300 cutoff_env 0;
#X obj 37 37 inlet;
#X obj 29 204 *~;
#X obj 29 225 outlet~;
#X obj 38 155 vline~;
#X msg 37 58 1 0.5 \, 0 \$1 0.5;
#X connect 0 0 4 0;
#X connect 1 0 2 0;
#X connect 3 0 1 0;
#X connect 3 0 1 1;
#X connect 4 0 3 0;
#X restore 400 172 pd cutoff_env;
#X obj 398 137 * 2;
#X text 520 204 Noise;
#N canvas 0 23 450 300 FM_osc 0;
#X obj 63 166 osc~ 150;
#X obj 68 135 +~;
#X obj 60 92 sig~ 150;
#X obj 134 70 osc~ 50;
#X obj 134 91 *~ 30;
#X obj 64 199 *~;
#X obj 220 143 *~;
#X obj 225 109 inlet~;
#X obj 64 220 outlet~;
#X connect 0 0 5 0;
#X connect 1 0 0 0;
#X connect 2 0 1 0;
#X connect 3 0 4 0;
#X connect 4 0 1 1;
#X connect 5 0 8 0;
#X connect 6 0 5 1;
#X connect 7 0 6 0;
#X connect 7 0 6 1;
#X restore 100 177 pd FM_osc;
#X obj 210 138 hip~ 100;
#X connect 0 0 16 0;
#X connect 1 0 5 0;
#X connect 2 0 21 0;
#X connect 3 0 1 0;
#X connect 4 0 16 1;
#X connect 5 0 12 0;
#X connect 6 0 1 1;
#X connect 7 0 6 0;
#X connect 8 0 5 0;
#X connect 9 0 10 0;
#X connect 10 0 8 1;
#X connect 11 0 4 0;
#X connect 13 0 14 0;
#X connect 13 0 7 1;
#X connect 14 0 9 1;
#X connect 15 0 3 0;
#X connect 15 0 20 0;
#X connect 16 0 15 0;
#X connect 16 0 18 0;
#X connect 17 0 7 0;
#X connect 17 0 9 0;
#X connect 18 0 17 0;
#X connect 20 0 1 0;
#X connect 20 0 8 0;
#X connect 21 0 3 1;
#X restore 1390 778 pd tr808-snare;
#X floatatom 1425 750 5 0 0 1 Decay - - 0;
#X obj 1427 600 vsl 15 128 50 2000 0 0 empty tr808sn_decay empty 0 -9 0 10 #fcfcfc #000000 #000000 0 1;
#X floatatom 1505 755 5 0 0 1 Noise - - 0;
#X obj 1506 609 vsl 15 128 100 10000 1 0 empty tr808sn_noise empty 0 -9 0 10 #fcfcfc #000000 #000000 0 1;
#X msg 1517 836 \; tr808sn_decay 200 \; tr808sn_noise 300 \;;
#X msg 1669 833 \; tr808sn_decay 500 \; tr808sn_noise 5000 \;;
#X msg 1673 890 \; tr808sn_decay 800 \; tr808sn_noise 3000 \;;
#X msg 1513 887 \; tr808sn_decay 300 \; tr808sn_noise 6000 \;;
#X obj 1670 813 loadbang;
#N canvas 0 23 645 536 cymbal 0;
#X obj 161 56 noise~;
#X floatatom 413 87 5 0 0 0 - - - 0;
#N canvas 0 23 858 387 six_pulse_oscs 0;
#X obj 37 37 inlet;
#X obj 26 156 phasor~;
#X obj 26 177 expr~ $v1 > 0.55;
#X obj 26 232 *~ 0.9;
#X obj 130 121 * 1.342;
#X obj 131 156 phasor~;
#X obj 131 177 expr~ $v1 > 0.55;
#X obj 235 156 phasor~;
#X obj 235 177 expr~ $v1 > 0.55;
#X obj 340 156 phasor~;
#X obj 340 177 expr~ $v1 > 0.55;
#X obj 444 156 phasor~;
#X obj 444 177 expr~ $v1 > 0.55;
#X obj 549 156 phasor~;
#X obj 549 177 expr~ $v1 > 0.55;
#X obj 234 123 * 1.2312;
#X obj 341 121 * 1.6532;
#X obj 444 122 * 1.9523;
#X obj 548 120 * 2.1523;
#X obj 26 253 outlet~;
#X connect 0 0 4 0;
#X connect 0 0 18 0;
#X connect 0 0 17 0;
#X connect 0 0 16 0;
#X connect 0 0 15 0;
#X connect 0 0 1 0;
#X connect 1 0 2 0;
#X connect 2 0 3 0;
#X connect 3 0 19 0;
#X connect 4 0 5 0;
#X connect 5 0 6 0;
#X connect 6 0 3 0;
#X connect 7 0 8 0;
#X connect 8 0 3 0;
#X connect 9 0 10 0;
#X connect 10 0 3 0;
#X connect 11 0 12 0;
#X connect 12 0 3 0;
#X connect 13 0 14 0;
#X connect 14 0 3 0;
#X connect 15 0 7 0;
#X connect 16 0 9 0;
#X connect 17 0 11 0;
#X connect 18 0 13 0;
#X restore 413 107 pd six_pulse_oscs;
#X obj 161 258 *~;
#X floatatom 371 69 5 0 0 0 - - - 0;
#X obj 328 66 bng 15 250 50 0 empty empty empty 17 7 0 10 #fcfcfc #000000 #000000;
#X obj 161 117 *~;
#N canvas 0 23 305 203 vol_env 0;
#X obj 74 76 f 250;
#X obj 72 43 inlet;
#X obj 128 38 inlet;
#X obj 76 126 vline~;
#X obj 76 147 outlet~;
#X msg 76 105 1 2 \, 0.4 \$1 2 \, 0 \$1 \$1;
#X connect 0 0 5 0;
#X connect 1 0 0 0;
#X connect 2 0 0 1;
#X connect 3 0 4 0;
#X connect 5 0 3 0;
#X restore 179 234 pd vol_env;
#N canvas 0 23 305 203 noise_env 0;
#X obj 72 43 inlet;
#X obj 128 38 inlet;
#X obj 68 141 line~;
#X msg 69 117 1 \, 0.6 \$1;
#X obj 87 72 f 250;
#X obj 87 93 * 0.5;
#X obj 71 171 outlet~;
#X connect 0 0 4 0;
#X connect 1 0 4 1;
#X connect 2 0 6 0;
#X connect 3 0 2 0;
#X connect 4 0 5 0;
#X connect 5 0 3 0;
#X restore 198 102 pd noise_env;
#X obj 161 197 freeverb~;
#X obj 193 273 delread~ \$0-del 5;
#X obj 31 296 delwrite~ \$0-del 10;
#N canvas 0 23 450 300 filters 0;
#X obj 36 37 inlet~;
#X obj 43 248 biquad~ 1.86507 -0.892661 0.894294 -1.78859 0.894294;
#X obj 38 124 biquad~ 0.88843 -0.568945 0.614344 -1.22869 0.614344;
#X obj 42 201 biquad~ 0.88843 -0.568945 0.614344 -1.22869 0.614344;
#X obj 42 81 biquad~ 0.638282 -0.176456 0.134544 0.269087 0.134544;
#X text 214 106 6800Hz resonant hipass \, Q=1.5;
#X text 210 53 7000Hz resonant lowpass \, Q=0.6;
#X text 220 182 6800Hz resonant hipass \, Q=1.5;
#X text 228 230 1200Hz resonant hipass \, Q=1.5;
#X obj 43 269 outlet~;
#X connect 0 0 4 0;
#X connect 1 0 9 0;
#X connect 2 0 3 0;
#X connect 3 0 1 0;
#X connect 4 0 2 0;
#X restore 161 154 pd filters;
#X obj 330 38 inlet;
#X obj 372 42 inlet;
#X obj 416 43 inlet;
#X text 461 47 basefreq;
#X text 368 24 dur;
#X text 290 21 trig;
#X obj 161 349 outlet~;
#X obj 161 315 *~ 0.5;
#X obj 413 128 *~ 1;
#X obj 461 65 loadbang;
#X msg 461 86 220;
#X connect 0 0 6 0;
#X connect 1 0 2 0;
#X connect 2 0 21 0;
#X connect 3 0 11 0;
#X connect 3 0 20 0;
#X connect 4 0 7 1;
#X connect 4 0 8 1;
#X connect 5 0 7 0;
#X connect 5 0 8 0;
#X connect 6 0 12 0;
#X connect 7 0 3 1;
#X connect 8 0 6 1;
#X connect 9 0 3 0;
#X connect 10 0 20 0;
#X connect 12 0 9 0;
#X connect 13 0 5 0;
#X connect 14 0 4 0;
#X connect 15 0 1 0;
#X connect 20 0 19 0;
#X connect 21 0 12 0;
#X connect 22 0 23 0;
#X connect 23 0 1 0;
#X restore 824 1019 pd cymbal;
#X obj 803 951 bng 15 250 50 0 empty empty empty 17 7 0 10 #fcfcfc #000000 #000000;
#X floatatom 865 986 5 0 0 1 decay - - 0;
#X obj 866 837 vsl 15 128 50 2000 1 0 empty hh_decay empty 0 -9 0 10 #fcfcfc #000000 #000000 0 1;
#X floatatom 943 990 5 0 0 1 pitch - - 0;
#X obj 944 846 vsl 15 128 100 1000 1 0 empty hh_pitch empty 0 -9 0 10 #fcfcfc #000000 #000000 0 1;
#X obj 824 1040 dac~;
#X msg 1049 899 \; hh_decay 250 \; hh_pitch 250 \;;
#X msg 1148 899 \; hh_decay 70 \; hh_pitch 500 \;;
#X msg 1049 943 \; hh_decay 170 \; hh_pitch 200 \;;
#X msg 1146 943 \; hh_decay 750 \; hh_pitch 450 \;;
#N canvas 0 23 374 160 filter_calculation_tool 0;
#N canvas 868 536 706 476 calculate_biquad_coefficients 0;
#X obj 131 15 inlet;
#X obj 353 10 inlet;
#X obj 486 98 expr pow(10 \, abs(1/20));
#X text 631 98 V;
#X obj 141 377 print;
#X obj 380 67 f 1;
#N canvas 1009 506 605 495 lowpass 0;
#X obj 37 37 inlet;
#X obj 57 98 expr tan(3.14159265 * $f1);
#X text 223 94 K;
#X obj 297 32 t f f;
#X text 28 154 norm;
#X obj 46 312 pack f f f f f;
#X obj 62 124 t f f;
#X text 103 226 lp_a0;
#X obj 69 267 * 2;
#X obj 49 225 t f f f;
#X obj 63 174 t f f;
#X obj 196 202 expr 2 * $f1 * (($f2*$f2) - 1);
#X obj 299 9 inlet;
#X obj 46 333 outlet;
#X obj 214 244 expr (1 - ($f2 / $f3) + ($f2*$f2)) * $f1;
#X obj 63 153 expr 1 / (1 + ($f1/$f2) + ($f1*$f1));
#X obj 49 204 expr $f2 * $f2 * $f1;
#X connect 0 0 1 0;
#X connect 1 0 6 0;
#X connect 3 0 14 2;
#X connect 3 0 15 1;
#X connect 5 0 13 0;
#X connect 6 0 15 0;
#X connect 6 1 11 1;
#X connect 6 1 14 1;
#X connect 6 1 16 1;
#X connect 8 0 5 1;
#X connect 9 0 5 0;
#X connect 9 1 8 0;
#X connect 9 2 5 2;
#X connect 10 0 16 0;
#X connect 10 1 11 0;
#X connect 10 1 14 0;
#X connect 11 0 5 3;
#X connect 12 0 3 0;
#X connect 14 0 5 4;
#X connect 15 0 10 0;
#X connect 16 0 9 0;
#X restore 172 173 pd lowpass;
#X obj 443 7 loadbang;
#X obj 185 60 loadbang;
#X obj 174 311 outlet;
#X obj 353 31 t b f;
#X obj 131 36 / 44100;
#X text 72 162 a0 a1 a2 b1 b2;
#N canvas 0 23 450 300 convert_to_pd_biquad 0;
#X obj 24 18 inlet;
#X obj 52 69 unpack f f f f f;
#X obj 121 112 * -1;
#X obj 155 113 * -1;
#X obj 61 175 pack f f f f f;
#X obj 49 141 f 0;
#X obj 24 39 t b l;
#X obj 61 196 outlet;
#X connect 0 0 6 0;
#X connect 1 0 4 2;
#X connect 1 1 4 3;
#X connect 1 2 4 4;
#X connect 1 3 2 0;
#X connect 1 4 3 0;
#X connect 2 0 5 1;
#X connect 3 0 4 1;
#X connect 4 0 7 0;
#X connect 5 0 4 0;
#X connect 6 0 5 0;
#X connect 6 1 1 0;
#X restore 172 194 pd convert_to_pd_biquad;
#X obj 170 103 f 0.01;
#X text 68 216 -b1 -b2 a0 a1 a2;
#N canvas 0 23 450 300 convert_to_pd_biquad 0;
#X obj 24 18 inlet;
#X obj 52 69 unpack f f f f f;
#X obj 121 112 * -1;
#X obj 155 113 * -1;
#X obj 61 175 pack f f f f f;
#X obj 49 141 f 0;
#X obj 24 39 t b l;
#X obj 61 196 outlet;
#X connect 0 0 6 0;
#X connect 1 0 4 2;
#X connect 1 1 4 3;
#X connect 1 2 4 4;
#X connect 1 3 2 0;
#X connect 1 4 3 0;
#X connect 2 0 5 1;
#X connect 3 0 4 1;
#X connect 4 0 7 0;
#X connect 5 0 4 0;
#X connect 6 0 5 0;
#X connect 6 1 1 0;
#X restore 348 196 pd convert_to_pd_biquad;
#N canvas 1009 506 605 495 highpass 0;
#X obj 37 37 inlet;
#X obj 57 98 expr tan(3.14159265 * $f1);
#X text 223 94 K;
#X obj 297 32 t f f;
#X text 28 154 norm;
#X obj 46 312 pack f f f f f;
#X obj 62 124 t f f;
#X obj 49 225 t f f f, f 12;
#X obj 63 174 t f f;
#X obj 196 202 expr 2 * $f1 * (($f2*$f2) - 1);
#X obj 299 9 inlet;
#X obj 46 333 outlet;
#X obj 214 244 expr (1 - ($f2 / $f3) + ($f2*$f2)) * $f1;
#X obj 63 153 expr 1 / (1 + ($f1/$f2) + ($f1*$f1));
#X obj 69 267 * -2;
#X connect 0 0 1 0;
#X connect 1 0 6 0;
#X connect 3 0 12 2;
#X connect 3 0 13 1;
#X connect 5 0 11 0;
#X connect 6 0 13 0;
#X connect 6 1 9 1;
#X connect 6 1 12 1;
#X connect 7 0 5 0;
#X connect 7 1 14 0;
#X connect 7 2 5 2;
#X connect 8 0 7 0;
#X connect 8 1 9 0;
#X connect 8 1 12 0;
#X connect 9 0 5 3;
#X connect 10 0 3 0;
#X connect 12 0 5 4;
#X connect 13 0 8 0;
#X connect 14 0 5 1;
#X restore 348 175 pd highpass;
#X obj 170 15 samplerate~;
#X obj 347 309 outlet;
#X obj 527 308 outlet;
#N canvas 1003 702 450 300 convert_to_pd_biquad 0;
#X obj 24 18 inlet;
#X obj 52 69 unpack f f f f f;
#X obj 121 112 * -1;
#X obj 155 113 * -1;
#X obj 61 175 pack f f f f f;
#X obj 49 141 f 0;
#X obj 24 39 t b l;
#X obj 61 196 outlet;
#X connect 0 0 6 0;
#X connect 1 0 4 2;
#X connect 1 1 4 3;
#X connect 1 2 4 4;
#X connect 1 3 2 0;
#X connect 1 4 3 0;
#X connect 2 0 5 1;
#X connect 3 0 4 1;
#X connect 4 0 7 0;
#X connect 5 0 4 0;
#X connect 6 0 5 0;
#X connect 6 1 1 0;
#X restore 522 200 pd convert_to_pd_biquad;
#N canvas 1009 506 605 495 bandpass 0;
#X obj 37 37 inlet;
#X obj 57 98 expr tan(3.14159265 * $f1);
#X text 223 94 K;
#X obj 297 32 t f f;
#X text 28 154 norm;
#X obj 62 124 t f f;
#X obj 49 225 t f f f;
#X obj 63 174 t f f;
#X obj 196 202 expr 2 * $f1 * (($f2*$f2) - 1);
#X obj 299 9 inlet;
#X obj 46 333 outlet;
#X obj 214 244 expr (1 - ($f2 / $f3) + ($f2*$f2)) * $f1;
#X obj 63 153 expr 1 / (1 + ($f1/$f2) + ($f1*$f1));
#X obj 49 204 expr $f2 / ($f3 * $f1);
#X obj 46 312 pack f 0 f f f;
#X obj 88 269 * -1;
#X connect 0 0 1 0;
#X connect 1 0 5 0;
#X connect 3 0 11 2;
#X connect 3 0 12 1;
#X connect 3 0 13 2;
#X connect 5 0 12 0;
#X connect 5 1 8 1;
#X connect 5 1 11 1;
#X connect 5 1 13 1;
#X connect 6 0 14 0;
#X connect 6 2 15 0;
#X connect 7 0 13 0;
#X connect 7 1 8 0;
#X connect 7 1 11 0;
#X connect 8 0 14 3;
#X connect 9 0 3 0;
#X connect 11 0 14 4;
#X connect 12 0 7 0;
#X connect 13 0 6 0;
#X connect 14 0 10 0;
#X connect 15 0 14 2;
#X restore 523 177 pd bandpass;
#X connect 0 0 11 0;
#X connect 1 0 10 0;
#X connect 5 0 6 1;
#X connect 5 0 17 1;
#X connect 5 0 22 1;
#X connect 6 0 13 0;
#X connect 7 0 5 0;
#X connect 8 0 14 0;
#X connect 10 0 14 0;
#X connect 10 1 5 0;
#X connect 11 0 14 0;
#X connect 13 0 9 0;
#X connect 14 0 6 0;
#X connect 14 0 17 0;
#X connect 14 0 22 0;
#X connect 16 0 19 0;
#X connect 17 0 16 0;
#X connect 18 0 11 1;
#X connect 21 0 20 0;
#X connect 22 0 21 0;
#X restore 21 47 pd calculate_biquad_coefficients;
#X floatatom 21 23 5 0 0 1 cutoff - - 0;
#X floatatom 210 25 5 0 0 1 resonance - - 0;
#X obj 21 74 print lowpass;
#X obj 115 74 print highpass;
#X obj 209 77 print bandpass;
#X connect 0 0 3 0;
#X connect 0 1 4 0;
#X connect 0 2 5 0;
#X connect 1 0 0 0;
#X connect 2 0 0 1;
#X restore 1106 1056 pd filter_calculation_tool;
#X obj 1217 556;
#N canvas 1265 53 634 693 kick_synth 0;
#X floatatom 267 137 5 0 0 0 - - - 0;
#X text 270 197 fDec = 250;
#X floatatom 292 356 5 0 0 0 - - - 0;
#X text 327 360 pScale = 1;
#X obj 233 401 *~ 1;
#X obj 233 422 phasor~;
#X obj 214 107 bng 15 250 50 0 empty empty empty 17 7 0 10 #fcfcfc #000000 #000000;
#X obj 233 442 expr~ if ($v1 > 0.5 \, 0 \, 1);
#X obj 265 471 noise~;
#X floatatom 450 371 5 0 0 0 - - - 0;
#X obj 339 413 *~ 1.5;
#X obj 236 514 vcf~ 0.5;
#X obj 199 625 *~;
#X obj 357 535 osc~;
#X floatatom 488 471 5 0 0 0 - - - 0;
#X obj 356 504 *~ 1;
#X obj 221 160 f 250;
#X obj 210 46 inlet;
#X text 204 25 trig;
#X obj 265 115 inlet;
#X text 265 93 decay time;
#X obj 292 325 inlet;
#X text 290 305 pitchScale;
#X text 432 322 filterScale;
#X obj 432 336 inlet;
#X text 453 448 sineVol;
#X obj 199 646 outlet~;
#X obj 500 447 inlet;
#N canvas 0 23 450 300 vol_env 0;
#X obj 125 167 vline~;
#X obj 125 188 *~;
#X msg 115 115 0.5 \, 1 5 \, 0.5 60 5 \, 0 \$1 65;
#X obj 108 69 inlet;
#X obj 125 209 outlet~;
#X connect 0 0 1 0;
#X connect 0 0 1 1;
#X connect 1 0 4 0;
#X connect 2 0 0 0;
#X connect 3 0 2 0;
#X restore 51 502 pd vol_env;
#N canvas 0 23 450 300 pitch_env 0;
#X obj 37 37 inlet;
#X obj 33 107 vline~;
#X obj 36 222 mtof~;
#X msg 36 73 1 \, 0.5 5 \, 0 \$1 5;
#X obj 33 155 *~ 80;
#X obj 33 176 +~ 29;
#X obj 33 128 *~;
#X obj 36 243 outlet~;
#X connect 0 0 3 0;
#X connect 1 0 6 0;
#X connect 1 0 6 1;
#X connect 2 0 7 0;
#X connect 3 0 1 0;
#X connect 4 0 5 0;
#X connect 5 0 2 0;
#X connect 6 0 4 0;
#X restore 221 247 pd pitch_env;
#X connect 0 0 16 1;
#X connect 2 0 4 1;
#X connect 4 0 5 0;
#X connect 5 0 7 0;
#X connect 6 0 16 0;
#X connect 7 0 11 0;
#X connect 8 0 11 0;
#X connect 9 0 10 1;
#X connect 10 0 11 1;
#X connect 11 1 12 1;
#X connect 12 0 26 0;
#X connect 13 0 12 1;
#X connect 14 0 15 1;
#X connect 15 0 13 0;
#X connect 16 0 28 0;
#X connect 16 0 29 0;
#X connect 17 0 6 0;
#X connect 19 0 0 0;
#X connect 21 0 2 0;
#X connect 24 0 9 0;
#X connect 27 0 14 0;
#X connect 28 0 12 0;
#X connect 29 0 4 0;
#X connect 29 0 10 0;
#X connect 29 0 15 0;
#X restore 77 1297 pd kick_synth;
#X f 64;
#X obj 77 1079 bng 15 250 50 0 empty empty empty 17 7 0 10 #fcfcfc #000000 #000000;
#X floatatom 150 1257 5 0 0 1 decay - - 0;
#X obj 151 1108 vsl 15 128 50 2000 1 0 empty kick_decay empty 0 -9 0 10 #fcfcfc #000000 #000000 0 1;
#X floatatom 229 1261 5 0 0 1 pitch_scale - - 0;
#X obj 229 1117 vsl 15 128 0.1 3 0 0 empty kick_pitch empty 0 -9 0 10 #fcfcfc #000000 #000000 0 1;
#X floatatom 455 1262 5 0 0 1 sine_scale - - 0;
#X obj 455 1118 vsl 15 128 0 2 0 0 empty kick_sine empty 0 -9 0 10 #fcfcfc #000000 #000000 0 1;
#X obj 77 1318 *~ 0.25;
#X obj 77 1339 dac~;
#X floatatom 336 1263 5 0 0 1 filter_scale - - 0;
#X obj 336 1119 vsl 15 128 0.1 3 0 0 empty kick_filter empty 0 -9 0 10 #fcfcfc #000000 #000000 0 1;
#X msg 563 1242 \; kick_decay 250 \; kick_pitch 1 \; kick_filter 1.5 \; kick_sine 1 \;;
#X msg 710 1240 \; kick_decay 150 \; kick_pitch 0.5 \; kick_filter 1.5 \; kick_sine 1 \;;
#X msg 560 1314 \; kick_decay 450 \; kick_pitch 0.25 \; kick_filter 0.5 \; kick_sine 1 \;;
#X obj 710 1053 tgl 15 0 empty empty empty 17 7 0 10 #fcfcfc #000000 #000000 0 1;
#X obj 710 1095 s kick;
#X obj 710 1074 metro 450;
#X msg 730 1312 \; kick_decay 1500 \; kick_pitch 0.5 \; kick_filter 0.5 \; kick_sine 0.5 \;;
#X msg 556 1383 \; kick_decay 50 \; kick_pitch 2.25 \; kick_filter 1.5 \; kick_sine 0.8 \;;
#X obj 1278 552;
#X floatatom 1267 523 5 0 0 0 - - - 0;
#X obj 169 128 route volumen1 filtrobass1 reverb1 filtrohigh1 delay1 volumen2 filtrobass2 filtrohigh2 sync syncstop snare cymbal kick;
#X connect 0 0 1 0;
#X connect 1 0 2 0;
#X connect 2 0 28 0;
#X connect 2 0 123 0;
#X connect 3 0 0 0;
#X connect 4 0 3 0;
#X connect 5 0 24 1;
#X connect 5 0 25 1;
#X connect 6 0 19 1;
#X connect 6 0 30 1;
#X connect 7 0 35 0;
#X connect 7 0 33 0;
#X connect 8 0 18 1;
#X connect 8 0 29 1;
#X connect 9 0 10 0;
#X connect 10 0 11 0;
#X connect 11 0 12 0;
#X connect 12 1 14 0;
#X connect 15 0 18 0;
#X connect 15 0 29 0;
#X connect 16 0 26 0;
#X connect 17 0 27 0;
#X connect 18 0 19 0;
#X connect 19 0 20 0;
#X connect 20 0 21 0;
#X connect 21 0 22 0;
#X connect 22 0 38 0;
#X connect 22 0 24 0;
#X connect 23 0 39 0;
#X connect 23 0 25 0;
#X connect 24 0 67 0;
#X connect 25 0 68 0;
#X connect 26 0 15 0;
#X connect 27 0 15 0;
#X connect 29 0 30 0;
#X connect 30 0 31 0;
#X connect 31 0 32 0;
#X connect 32 0 23 0;
#X connect 33 0 34 0;
#X connect 33 0 36 0;
#X connect 35 0 22 0;
#X connect 35 0 23 0;
#X connect 36 0 22 0;
#X connect 36 0 23 0;
#X connect 37 0 42 1;
#X connect 37 0 43 1;
#X connect 40 0 42 0;
#X connect 41 0 43 0;
#X connect 42 0 24 0;
#X connect 43 0 25 0;
#X connect 44 0 59 1;
#X connect 44 0 60 1;
#X connect 45 0 57 1;
#X connect 45 0 65 1;
#X connect 46 0 56 1;
#X connect 46 0 64 1;
#X connect 47 0 48 0;
#X connect 48 0 49 0;
#X connect 49 0 50 0;
#X connect 50 1 52 0;
#X connect 53 0 56 0;
#X connect 53 0 64 0;
#X connect 54 0 62 0;
#X connect 55 0 63 0;
#X connect 56 0 57 0;
#X connect 57 0 58 0;
#X connect 58 0 59 0;
#X connect 59 0 67 1;
#X connect 60 0 68 1;
#X connect 62 0 53 0;
#X connect 63 0 53 0;
#X connect 64 0 65 0;
#X connect 65 0 66 0;
#X connect 66 0 60 0;
#X connect 67 0 61 0;
#X connect 68 0 61 1;
#X connect 69 0 70 0;
#X connect 70 0 26 0;
#X connect 70 1 62 0;
#X connect 71 0 72 0;
#X connect 72 0 27 0;
#X connect 72 1 63 0;
#X connect 75 0 76 0;
#X connect 75 0 76 1;
#X connect 77 0 78 0;
#X connect 78 0 75 0;
#X connect 79 0 78 1;
#X connect 80 0 79 0;
#X connect 81 0 78 2;
#X connect 82 0 81 0;
#X connect 87 0 84 0;
#X connect 88 0 94 0;
#X connect 88 0 94 1;
#X connect 89 0 88 0;
#X connect 90 0 88 1;
#X connect 91 0 90 0;
#X connect 92 0 88 2;
#X connect 93 0 92 0;
#X connect 101 0 109 0;
#X connect 102 0 101 0;
#X connect 103 0 101 1;
#X connect 104 0 103 0;
#X connect 105 0 101 2;
#X connect 106 0 105 0;
#X connect 107 0 101 4;
#X connect 108 0 107 0;
#X connect 109 0 110 0;
#X connect 109 0 110 1;
#X connect 111 0 101 3;
#X connect 112 0 111 0;
#X connect 116 0 118 0;
#X connect 118 0 117 0;
#X connect 123 0 5 0;
#X connect 123 1 6 0;
#X connect 123 2 7 0;
#X connect 123 3 8 0;
#X connect 123 4 37 0;
#X connect 123 5 44 0;
#X connect 123 6 45 0;
#X connect 123 7 46 0;
#X connect 123 8 69 0;
#X connect 123 9 71 0;
#X connect 123 10 77 0;
#X connect 123 11 89 0;
#X connect 123 12 102 0;
