#N canvas 43 201 1000 850 12;
#X obj 50 50 netreceive -u -b 5580;
#X obj 50 100 oscparse;
#X obj 50 150 list trim;
#X obj 50 200 route /1/fader1 /1/fader2 /1/fader3 /1/slider1 /1/toggle1 /1/push1 /1/push2 /1/push3;
#X msg 50 20 listen 5580;
#X obj 50 40 loadbang;
#X floatatom 50 250 5 0 1 0 VOLUMEN - - 0;
#X floatatom 150 250 5 0 10000 0 FILTRO - - 0;
#X floatatom 250 250 5 0 1 0 REVERB - - 0;
#X floatatom 350 250 5 0 1 0 SATURACION - - 0;
#X obj 150 300 bng 15 250 50 0 empty empty CARGAR 0 -10 0 12 #fcfcfc #000000 #000000;
#X obj 150 330 openpanel;
#X msg 150 360 read -resize \$1 deck1;
#X obj 150 390 soundfiler;
#X obj 150 420 array define deck1;
#X floatatom 250 390 10 0 0 0 DURACION - - 0;
#X obj 50 460 tabplay~ deck1;
#X obj 50 300 bng 15 250 50 0 empty empty PLAY 0 -10 0 12 #fcfcfc #000000 #000000;
#X obj 100 300 bng 15 250 50 0 empty empty STOP 0 -10 0 12 #fcfcfc #000000 #000000;
#X obj 50 500 lop~ 10000;
#X obj 50 540 *~ 1;
#X obj 50 580 clip~ -0.99 0.99;
#X obj 50 620 *~ 1;
#X obj 50 660 dac~;
#X msg 50 330 1;
#X msg 100 330 0;
#X obj 161 151 print;
#X connect 0 0 1 0;
#X connect 1 0 2 0;
#X connect 1 0 26 0;
#X connect 2 0 3 0;
#X connect 3 0 6 0;
#X connect 3 1 7 0;
#X connect 3 3 9 0;
#X connect 4 0 0 0;
#X connect 5 0 4 0;
#X connect 6 0 22 1;
#X connect 7 0 19 1;
#X connect 9 0 20 1;
#X connect 10 0 11 0;
#X connect 11 0 12 0;
#X connect 12 0 13 0;
#X connect 13 1 15 0;
#X connect 16 0 19 0;
#X connect 17 0 24 0;
#X connect 18 0 25 0;
#X connect 19 0 20 0;
#X connect 20 0 21 0;
#X connect 21 0 22 0;
#X connect 22 0 23 0;
#X connect 22 0 23 1;
#X connect 24 0 16 0;
#X connect 25 0 16 0;
