#N canvas 4 44 1920 997 12;
#X obj 50 50 netreceive -u -b 5580;
#X obj 50 81 oscparse;
#X obj 50 150 list trim;
#X obj 173 187 route /1/fader1 /1/fader2 /1/fader3 /1/slider1 /1/toggle1 /1/push1 /1/push2 /1/push3;
#X msg 50 20 listen 5580;
#X obj 50 -8 loadbang;
#X floatatom 339 518 5 0 1 0 VOLUMEN - - 0;
#X floatatom 150 250 5 0 10000 0 FILTRO_LOW - - 0;
#X floatatom 292 271 5 0 1 0 REVERB_WET - - 0;
#X floatatom 440 260 5 0 10000 0 FILTRO_HIGH - - 0;
#X obj 717 156 bng 15 250 50 0 empty empty CARGAR 0 -10 0 12 #fcfcfc #000000 #000000;
#X obj 705 204 openpanel;
#X msg 686 265 read -resize \$1 deck1;
#X obj 693 333 soundfiler;
#X obj 653 445 array define deck1;
#X floatatom 716 397 10 0 0 0 DURACION - - 0;
#X obj 7 420 tabplay~ deck1;
#X obj 50 300 bng 15 250 50 0 empty empty PLAY 0 -10 0 12 #fcfcfc #000000 #000000;
#X obj 100 300 bng 15 250 50 0 empty empty STOP 0 -10 0 12 #fcfcfc #000000 #000000;
#X obj 38 492 hip~ 20;
#X obj 38 520 lop~ 10000;
#X obj 50 560 *~ 1;
#X obj 11 600 clip~ -0.99 0.99;
#X obj 98 659 freeverb~;
#X obj 400 705 freeverb~;
#X obj 130 719 *~ 1;
#X obj 206 728 *~ 1;
#X obj 70 769 dac~;
#X msg 50 330 1;
#X msg 100 330 0;
#X obj 161 151 print;
#X obj 154 493 hip~ 20;
#X obj 154 520 lop~ 10000;
#X obj 194 560 *~ 1;
#X obj 148 600 clip~ -0.99 0.99;
#X obj 508 358 expr 1 - $f1;
#X floatatom 446 400 5 0 1 0 REVERB_DRY - - 0;
#X msg 426 538 wet \$1;
#X msg 543 547 dry \$1;
#X connect 0 0 1 0;
#X connect 1 0 2 0;
#X connect 1 0 30 0;
#X connect 2 0 3 0;
#X connect 3 0 6 0;
#X connect 3 1 7 0;
#X connect 3 2 8 0;
#X connect 3 3 9 0;
#X connect 4 0 0 0;
#X connect 5 0 4 0;
#X connect 6 0 25 1;
#X connect 6 0 26 1;
#X connect 7 0 20 1;
#X connect 7 0 32 1;
#X connect 8 0 37 0;
#X connect 8 0 35 0;
#X connect 9 0 19 1;
#X connect 9 0 31 1;
#X connect 10 0 11 0;
#X connect 11 0 12 0;
#X connect 12 0 13 0;
#X connect 13 1 15 0;
#X connect 16 0 19 0;
#X connect 16 0 31 0;
#X connect 17 0 28 0;
#X connect 18 0 29 0;
#X connect 19 0 20 0;
#X connect 20 0 21 0;
#X connect 21 0 22 0;
#X connect 22 0 23 0;
#X connect 23 0 25 0;
#X connect 24 0 26 0;
#X connect 25 0 27 0;
#X connect 26 0 27 1;
#X connect 28 0 16 0;
#X connect 29 0 16 0;
#X connect 31 0 32 0;
#X connect 32 0 33 0;
#X connect 33 0 34 0;
#X connect 34 0 24 0;
#X connect 35 0 36 0;
#X connect 35 0 38 0;
#X connect 37 0 23 0;
#X connect 37 0 24 0;
#X connect 38 0 23 0;
#X connect 38 0 24 0;
